<?xml version="1.0" encoding="utf-8"?>
<!-- Generator: Adobe Illustrator 15.1.0, SVG Export Plug-In . SVG Version: 6.00 Build 0)  -->
<!DOCTYPE svg PUBLIC "-//W3C//DTD SVG 1.1//EN" "http://www.w3.org/Graphics/SVG/1.1/DTD/svg11.dtd">
<svg version="1.1" id="Layer_1" xmlns="http://www.w3.org/2000/svg" xmlns:xlink="http://www.w3.org/1999/xlink" x="0px" y="0px"
	 width="46.823px" height="46.823px" viewBox="0 0 46.823 46.823" enable-background="new 0 0 46.823 46.823" xml:space="preserve">
<circle fill="#EFEFEF" cx="23.412" cy="23.412" r="23.412"/>
<path fill="#C3102F" d="M39.034,19.949c-0.047-0.08-0.095-0.158-0.145-0.236c-1.736-2.85-5.691-5.204-10.779-6.715
	c-0.148-0.045-2.536-0.669-3.213-0.813c-4.305-0.915-8.351-1.09-11.248-0.629c-3.578,0.57-5.466,2.072-5.613,4.62
	c-0.144,2.542,1.204,5.683,2.917,8.792c1.774,3.096,3.911,6.163,6.798,8.266c2.88,2.104,6.23,2.779,9.88,2.026
	c2.399-0.489,4.932-1.621,7.113-3.255c-3.174,3.075-7.038,6.098-9.556,7.101c-4.082,1.639-7.534,1.297-10.261-1.017
	c-3.035-2.568-4.849-6.926-5.946-9.979c-1.633-4.814-2.16-8.419-1.661-11.342c0.582-3.393,2.809-5.717,6.808-7.107
	c0.92-0.318,1.947-0.586,3.051-0.795l-0.065-0.347c-1.12,0.212-2.164,0.483-3.101,0.808c-4.132,1.438-6.435,3.852-7.039,7.382
	c-0.512,2.982,0.021,6.642,1.674,11.517c1.115,3.096,2.951,7.51,6.053,10.133c2.834,2.404,6.406,2.766,10.619,1.075
	c3.672-1.464,10.714-7.542,12.938-10.823C40.323,25.658,40.598,22.596,39.034,19.949z"/>
</svg>
